<svg xmlns="http://www.w3.org/2000/svg" width="239.947" height="76.414" viewBox="0 0 239.947 76.414"><defs><style>.a{fill:#fff;}</style></defs><g transform="translate(41.885)"><path class="a" d="M75.1,220.944c0-7.308,5.641-12.244,13.078-12.244a11.068,11.068,0,0,1,10.77,6.923l-6.154,2.885a4.988,4.988,0,0,0-4.616-3.462,5.965,5.965,0,0,0,0,11.924,5.122,5.122,0,0,0,4.616-3.462l6.154,2.821a11.244,11.244,0,0,1-10.77,6.923C80.677,233.188,75.1,228.252,75.1,220.944Z" transform="translate(-75.1 -208.7)"/><path class="a" d="M113.7,220.944c0-7.308,5.641-12.244,12.949-12.244s12.949,5,12.949,12.244c0,7.308-5.641,12.244-12.949,12.244S113.7,228.252,113.7,220.944Zm18.655,0a5.711,5.711,0,1,0-5.705,5.962A5.624,5.624,0,0,0,132.355,220.944Z" transform="translate(-88.955 -208.7)"/><path class="a" d="M171.213,233.019l-3.269-7.436H165.38v7.436H158.2V209.3h12.629c5.577,0,8.526,3.718,8.526,8.141a7.549,7.549,0,0,1-4.3,7.18l4.3,8.4Zm.9-15.642c0-1.282-1.154-1.859-2.372-1.859H165.38v3.718h4.359C170.957,219.236,172.111,218.724,172.111,217.377Z" transform="translate(-104.928 -208.915)"/><path class="a" d="M193.8,220.944c0-7.308,5.641-12.244,12.949-12.244s12.949,5,12.949,12.244c0,7.308-5.641,12.244-12.949,12.244S193.8,228.252,193.8,220.944Zm18.655,0a5.711,5.711,0,1,0-5.705,5.962A5.624,5.624,0,0,0,212.455,220.944Z" transform="translate(-117.707 -208.7)"/><path class="a" d="M254.2,233.019l-8.718-11.988v11.988H238.3V209.3h7.372l8.27,11.218V209.3h7.18v23.719Z" transform="translate(-133.68 -208.915)"/><path class="a" d="M294.234,233.019l-.833-2.757h-8.526l-.833,2.757H275.9l8.718-23.719h9.039l8.718,23.719Zm-5.128-16.732-2.372,7.629h4.68Z" transform="translate(-147.176 -208.915)"/></g><g transform="translate(0 39.553)"><path class="a" d="M120.859,270.4l-6.539,36.8H100.537l2.051-11.475L92.46,307.2,86.5,295.722,84.447,307.2H70.6l6.539-36.8H90.921l5.962,11.475L107.012,270.4Z" transform="translate(-70.6 -270.4)"/><path class="a" d="M162.721,270.4l-6.539,36.8H142.4l6.539-36.8Z" transform="translate(-96.372 -270.4)"/><path class="a" d="M210.871,270.4l-2.051,11.475H194.14c-.705,0-1.09.385-1.09,1.218,0,.064,1.987,1.859,5.9,5.257a8.109,8.109,0,0,1,2.885,6.475,11.384,11.384,0,0,1-4.359,8.782,13.837,13.837,0,0,1-9.231,3.654H167.6l2.051-11.475h13.59c.705,0,1.09-.385,1.09-1.218,0-.064-1.859-1.667-5.513-4.744a6.914,6.914,0,0,1-2.372-5.641,13.048,13.048,0,0,1,4.167-9.488,13.187,13.187,0,0,1,9.552-4.167h20.706Z" transform="translate(-105.418 -270.4)"/><path class="a" d="M266.307,270.4l-2.051,11.475H249.64c-.705,0-1.09.385-1.09,1.218,0,.064,1.987,1.859,5.9,5.257a8.109,8.109,0,0,1,2.885,6.475,11.384,11.384,0,0,1-4.359,8.782,13.837,13.837,0,0,1-9.231,3.654H223.1l2.051-11.475h13.654c.705,0,1.09-.385,1.09-1.218,0-.064-1.859-1.667-5.513-4.744a6.914,6.914,0,0,1-2.372-5.641,13.048,13.048,0,0,1,4.167-9.488,13.187,13.187,0,0,1,9.552-4.167h20.578Z" transform="translate(-125.339 -270.4)"/><path class="a" d="M304.321,270.4l-6.539,36.8H284l6.539-36.8Z" transform="translate(-147.199 -270.4)"/><path class="a" d="M353.381,285.785c0,5.769-2.436,10.77-7.308,15.129A23.078,23.078,0,0,1,330.3,307.2a16.808,16.808,0,0,1-11.6-4.231,14.073,14.073,0,0,1-5-11.154c0-5.77,2.436-10.77,7.308-15.129a23.078,23.078,0,0,1,15.77-6.282,16.808,16.808,0,0,1,11.6,4.231A14.255,14.255,0,0,1,353.381,285.785Zm-12.629,1.987a5.44,5.44,0,0,0-1.795-4.167,6.07,6.07,0,0,0-4.231-1.667,8.337,8.337,0,0,0-5.77,2.436,7.215,7.215,0,0,0-2.628,5.577,5.44,5.44,0,0,0,1.795,4.167,6.07,6.07,0,0,0,4.231,1.667,8.337,8.337,0,0,0,5.77-2.436A7.407,7.407,0,0,0,340.753,287.773Z" transform="translate(-157.86 -270.4)"/><path class="a" d="M419.379,270.4l-6.539,36.8H399.058a28.079,28.079,0,0,0,.256-3.269,16.865,16.865,0,0,0-1.923-8.462,7.9,7.9,0,0,0-6.923-4.359l-2.885,16.09H373.8l6.539-36.8h.192a33.106,33.106,0,0,1,13.27,2.5,18.631,18.631,0,0,1,9.744,8.975L405.6,270.4Z" transform="translate(-179.432 -270.4)"/></g></svg>