<svg xmlns="http://www.w3.org/2000/svg" width="224.276" height="20.709" viewBox="0 0 224.276 20.709"><defs><style>.a{fill:#fff;}</style></defs><g transform="translate(0 6.939)"><path class="a" d="M75.1,215.567c0-4.1,3.164-6.867,7.334-6.867a6.207,6.207,0,0,1,6.04,3.883L85.023,214.2a2.8,2.8,0,0,0-2.589-1.941,3.345,3.345,0,0,0,0,6.687,2.873,2.873,0,0,0,2.589-1.941l3.452,1.582a6.306,6.306,0,0,1-6.04,3.883C78.228,222.434,75.1,219.666,75.1,215.567Z" transform="translate(-75.1 -208.7)"/><path class="a" d="M113.7,215.567c0-4.1,3.164-6.867,7.263-6.867s7.263,2.8,7.263,6.867c0,4.1-3.164,6.867-7.263,6.867S113.7,219.666,113.7,215.567Zm10.462,0a3.2,3.2,0,1,0-3.2,3.344A3.154,3.154,0,0,0,124.162,215.567Z" transform="translate(-99.822 -208.7)"/><path class="a" d="M165.5,222.6l-1.834-4.171h-1.438V222.6H158.2V209.3h7.083a4.417,4.417,0,0,1,4.782,4.566,4.234,4.234,0,0,1-2.409,4.027l2.409,4.71Zm.5-8.773c0-.719-.647-1.043-1.33-1.043h-2.445v2.085h2.445C165.355,214.873,166,214.585,166,213.83Z" transform="translate(-128.323 -209.084)"/><path class="a" d="M193.8,215.567c0-4.1,3.164-6.867,7.263-6.867s7.263,2.8,7.263,6.867c0,4.1-3.164,6.867-7.263,6.867S193.8,219.666,193.8,215.567Zm10.462,0a3.2,3.2,0,1,0-3.2,3.344A3.154,3.154,0,0,0,204.262,215.567Z" transform="translate(-151.124 -208.7)"/><path class="a" d="M247.216,222.6l-4.89-6.723V222.6H238.3V209.3h4.135l4.638,6.292V209.3H251.1v13.3Z" transform="translate(-179.624 -209.084)"/><path class="a" d="M286.183,222.6l-.467-1.546h-4.782l-.467,1.546H275.9l4.89-13.3h5.069l4.89,13.3Zm-2.876-9.384-1.33,4.278H284.6Z" transform="translate(-203.706 -209.084)"/></g><g transform="translate(89.703)"><path class="a" d="M98.787,270.4,95.12,291.037H87.39l1.151-6.436-5.681,6.436L79.516,284.6l-1.15,6.436H70.6L74.267,270.4H82l3.344,6.436,5.681-6.436Z" transform="translate(-70.6 -270.4)"/><path class="a" d="M153.8,270.4l-3.667,20.637H142.4l3.667-20.637Z" transform="translate(-116.586 -270.4)"/><path class="a" d="M191.868,270.4l-1.15,6.436h-8.233c-.4,0-.611.216-.611.683,0,.036,1.115,1.043,3.308,2.948A4.548,4.548,0,0,1,186.8,284.1a6.384,6.384,0,0,1-2.445,4.926,7.761,7.761,0,0,1-5.177,2.049H167.6l1.15-6.436h7.622c.4,0,.611-.216.611-.683,0-.036-1.043-.935-3.092-2.661a3.878,3.878,0,0,1-1.33-3.164,7.318,7.318,0,0,1,2.337-5.321,7.4,7.4,0,0,1,5.357-2.337h11.613Z" transform="translate(-132.725 -270.4)"/><path class="a" d="M247.332,270.4l-1.151,6.436h-8.2c-.4,0-.611.216-.611.683,0,.036,1.115,1.043,3.308,2.948A4.548,4.548,0,0,1,242.3,284.1a6.384,6.384,0,0,1-2.445,4.926,7.761,7.761,0,0,1-5.177,2.049H223.1l1.15-6.436h7.658c.4,0,.611-.216.611-.683,0-.036-1.043-.935-3.092-2.661a3.878,3.878,0,0,1-1.33-3.164,7.318,7.318,0,0,1,2.337-5.321,7.4,7.4,0,0,1,5.357-2.337h11.541Z" transform="translate(-168.271 -270.4)"/><path class="a" d="M295.4,270.4l-3.667,20.637H284l3.667-20.637Z" transform="translate(-207.276 -270.4)"/><path class="a" d="M335.955,279.029a11.066,11.066,0,0,1-4.1,8.485,12.943,12.943,0,0,1-8.845,3.523,9.427,9.427,0,0,1-6.508-2.373,7.893,7.893,0,0,1-2.8-6.256,11.066,11.066,0,0,1,4.1-8.485,12.943,12.943,0,0,1,8.844-3.523,9.427,9.427,0,0,1,6.508,2.373A8,8,0,0,1,335.955,279.029Zm-7.083,1.115a3.051,3.051,0,0,0-1.007-2.337,3.4,3.4,0,0,0-2.373-.935,4.676,4.676,0,0,0-3.236,1.366,4.046,4.046,0,0,0-1.474,3.128,3.051,3.051,0,0,0,1.007,2.337,3.4,3.4,0,0,0,2.373.935,4.676,4.676,0,0,0,3.236-1.366A4.154,4.154,0,0,0,328.872,280.143Z" transform="translate(-226.298 -270.4)"/><path class="a" d="M399.363,270.4,395.7,291.037h-7.73a15.745,15.745,0,0,0,.144-1.834,9.459,9.459,0,0,0-1.079-4.746,4.431,4.431,0,0,0-3.883-2.445l-1.618,9.024H373.8l3.667-20.637h.108a18.567,18.567,0,0,1,7.442,1.4,10.449,10.449,0,0,1,5.465,5.033l1.15-6.436Z" transform="translate(-264.79 -270.4)"/></g></svg>