<svg xmlns="http://www.w3.org/2000/svg" width="267.916" height="24.739" viewBox="0 0 267.916 24.739"><defs><style>.a{fill:#00c0ee;}</style></defs><g transform="translate(2562.171 -1574.4)"><g transform="translate(-2562.171 1582.689)"><path class="a" d="M75.1,216.9c0-4.9,3.78-8.2,8.762-8.2a7.415,7.415,0,0,1,7.215,4.638l-4.123,1.933a3.342,3.342,0,0,0-3.092-2.319,4,4,0,0,0,0,7.989,3.432,3.432,0,0,0,3.092-2.319l4.123,1.89a7.533,7.533,0,0,1-7.215,4.638C78.837,225.107,75.1,221.8,75.1,216.9Z" transform="translate(-75.1 -208.7)"/><path class="a" d="M113.7,216.9c0-4.9,3.78-8.2,8.676-8.2s8.676,3.35,8.676,8.2c0,4.9-3.78,8.2-8.676,8.2S113.7,221.8,113.7,216.9Zm12.5,0a3.826,3.826,0,1,0-3.822,3.994A3.768,3.768,0,0,0,126.2,216.9Z" transform="translate(-97.122 -208.7)"/><path class="a" d="M166.919,225.191l-2.19-4.982H163.01v4.982H158.2V209.3h8.461c3.737,0,5.712,2.491,5.712,5.455a5.058,5.058,0,0,1-2.878,4.81l2.878,5.626Zm.6-10.48c0-.859-.773-1.246-1.589-1.246H163.01v2.491h2.921C166.747,215.957,167.52,215.614,167.52,214.712Z" transform="translate(-122.509 -209.042)"/><path class="a" d="M193.8,216.9c0-4.9,3.779-8.2,8.676-8.2s8.676,3.35,8.676,8.2c0,4.9-3.78,8.2-8.676,8.2S193.8,221.8,193.8,216.9Zm12.5,0a3.826,3.826,0,1,0-3.822,3.994A3.768,3.768,0,0,0,206.3,216.9Z" transform="translate(-142.82 -208.7)"/><path class="a" d="M248.951,225.191l-5.841-8.031v8.031H238.3V209.3h4.939l5.54,7.516V209.3h4.81v15.891Z" transform="translate(-168.207 -209.042)"/><path class="a" d="M288.183,225.191l-.558-1.847h-5.712l-.558,1.847H275.9l5.841-15.891H287.8l5.841,15.891Zm-3.436-11.21-1.589,5.111h3.135Z" transform="translate(-189.658 -209.042)"/></g><g transform="translate(-2455.014 1574.4)"><path class="a" d="M104.272,270.4l-4.381,24.653H90.657l1.374-7.688-6.786,7.688-3.994-7.688-1.374,7.688H70.6L74.981,270.4h9.234l3.994,7.688L95,270.4Z" transform="translate(-70.6 -270.4)"/><path class="a" d="M156.015,270.4l-4.381,24.653H142.4l4.381-24.653Z" transform="translate(-111.563 -270.4)"/><path class="a" d="M196.591,270.4l-1.374,7.688h-9.835c-.472,0-.73.258-.73.816,0,.043,1.331,1.246,3.951,3.522a5.433,5.433,0,0,1,1.933,4.338,7.627,7.627,0,0,1-2.921,5.884,9.271,9.271,0,0,1-6.185,2.448H167.6l1.374-7.688h9.105c.472,0,.73-.258.73-.816,0-.043-1.245-1.117-3.694-3.178a4.632,4.632,0,0,1-1.589-3.78,8.742,8.742,0,0,1,2.792-6.356,8.835,8.835,0,0,1,6.4-2.792h13.873Z" transform="translate(-125.939 -270.4)"/><path class="a" d="M252.048,270.4l-1.374,7.688h-9.792c-.472,0-.73.258-.73.816,0,.043,1.331,1.246,3.951,3.522a5.433,5.433,0,0,1,1.933,4.338,7.627,7.627,0,0,1-2.921,5.884,9.271,9.271,0,0,1-6.185,2.448H223.1l1.374-7.688h9.148c.472,0,.73-.258.73-.816,0-.043-1.246-1.117-3.694-3.178a4.632,4.632,0,0,1-1.589-3.78,8.742,8.742,0,0,1,2.792-6.356,8.835,8.835,0,0,1,6.4-2.792h13.787Z" transform="translate(-157.603 -270.4)"/><path class="a" d="M297.615,270.4l-4.381,24.653H284l4.381-24.653Z" transform="translate(-192.347 -270.4)"/><path class="a" d="M340.285,280.708c0,3.865-1.632,7.215-4.9,10.136a15.462,15.462,0,0,1-10.565,4.209,11.261,11.261,0,0,1-7.774-2.835,9.429,9.429,0,0,1-3.35-7.473c0-3.865,1.632-7.215,4.9-10.136a15.462,15.462,0,0,1,10.565-4.209,11.261,11.261,0,0,1,7.774,2.835A9.551,9.551,0,0,1,340.285,280.708Zm-8.461,1.331a3.644,3.644,0,0,0-1.2-2.792,4.067,4.067,0,0,0-2.835-1.117,5.586,5.586,0,0,0-3.865,1.632,4.834,4.834,0,0,0-1.761,3.737,3.645,3.645,0,0,0,1.2,2.792,4.067,4.067,0,0,0,2.835,1.117,5.586,5.586,0,0,0,3.865-1.632A4.962,4.962,0,0,0,331.824,282.039Z" transform="translate(-209.291 -270.4)"/><path class="a" d="M404.337,270.4l-4.381,24.653h-9.234a18.811,18.811,0,0,0,.172-2.19,11.3,11.3,0,0,0-1.288-5.669,5.293,5.293,0,0,0-4.639-2.921l-1.933,10.78H373.8l4.381-24.653h.129a22.18,22.18,0,0,1,8.89,1.675,12.483,12.483,0,0,1,6.528,6.013L395.1,270.4Z" transform="translate(-243.579 -270.4)"/></g></g></svg>