<svg xmlns="http://www.w3.org/2000/svg" width="122.177" height="73.211" viewBox="0 0 122.177 73.211"><defs><style>.a{fill:#393939;fill-rule:evenodd;}</style></defs><g transform="translate(-0.193 -20.24)"><path class="a" d="M51.672,228.435c.167-.28.089-.528-.227-.733l-.556-.415c-.266-.184-.5-.117-.709.195a2.628,2.628,0,0,1-.227.354,2.41,2.41,0,0,1-.393.471,1.927,1.927,0,0,1-1.474.57,2.016,2.016,0,0,1-1.594-.709,2.374,2.374,0,0,1-.556-1.545v-3.943a2.377,2.377,0,0,1,.556-1.569,2.065,2.065,0,0,1,1.594-.709,2.48,2.48,0,0,1,.9.145,2.7,2.7,0,0,1,.6.425,1.8,1.8,0,0,1,.393.471,1.251,1.251,0,0,1,.2.4.471.471,0,0,0,.709.12l.581-.4a.6.6,0,0,0,.252-.4.609.609,0,0,0-.1-.354,4.1,4.1,0,0,0-.932-1.261,3.319,3.319,0,0,0-1.042-.631,4.435,4.435,0,0,0-1.584-.252,3.851,3.851,0,0,0-2.9,1.2,3.925,3.925,0,0,0-1.12,2.834v3.922a3.918,3.918,0,0,0,1.116,2.8,3.833,3.833,0,0,0,2.9,1.208,4.518,4.518,0,0,0,1.562-.287,3.522,3.522,0,0,0,1.063-.616,3.411,3.411,0,0,0,.68-.744,3.284,3.284,0,0,0,.3-.546Zm28.821-5.488a4.124,4.124,0,0,0-1.095-2.834,3.837,3.837,0,0,0-2.926-1.2,3.956,3.956,0,0,0-4.018,4.032v3.922a3.973,3.973,0,0,0,4.018,4.007,4.283,4.283,0,0,0,2.48-.709,5.066,5.066,0,0,0,.8-.709,7.263,7.263,0,0,0,.535-.709.652.652,0,0,0,.124-.386.567.567,0,0,0-.252-.376l-.539-.4a.45.45,0,0,0-.354-.117.507.507,0,0,0-.372.216,4.622,4.622,0,0,1-.886.942,2.448,2.448,0,0,1-1.559.521,1.97,1.97,0,0,1-1.584-.709,2.36,2.36,0,0,1-.56-1.548v-.6a.482.482,0,0,1,.539-.549h4.56a.947.947,0,0,0,1.063-1.088v-1.683Zm-1.867.6a.482.482,0,0,1-.539.546H74.853a.482.482,0,0,1-.539-.546v-.6a2.37,2.37,0,0,1,.563-1.577,2.158,2.158,0,0,1,3.189,0,2.37,2.37,0,0,1,.563,1.577v.6Zm30.267,3.366a3,3,0,0,0-1.194-2.565,5.038,5.038,0,0,0-2.834-.864,4.779,4.779,0,0,1-.971-.252,1.449,1.449,0,0,1-.655-.475,1.031,1.031,0,0,1-.322-.815,1.637,1.637,0,0,1,.415-1,1.929,1.929,0,0,1,1.538-.546,2.31,2.31,0,0,1,1.633.691.577.577,0,0,0,.762.074l.585-.425a.439.439,0,0,0,.071-.73,4.279,4.279,0,0,0-1.215-.957,4.567,4.567,0,0,0-1.835-.354,3.681,3.681,0,0,0-2.8,1.042,3.189,3.189,0,0,0-.953,2.243c.035,1.963,1.283,3.054,3.755,3.274a6.652,6.652,0,0,1,1.063.191,1.877,1.877,0,0,1,.762.5,1.527,1.527,0,0,1,.312,1,1.94,1.94,0,0,1-2.147,1.963,2.3,2.3,0,0,1-1.467-.5,5.7,5.7,0,0,1-1.027-1.017.461.461,0,0,0-.709-.142l-.539.393a.521.521,0,0,0-.156.758,5.123,5.123,0,0,0,1.392,1.46,4.23,4.23,0,0,0,2.512.779,4.006,4.006,0,0,0,2.972-1.084,3.543,3.543,0,0,0,1.063-2.629Zm28.647-4.209a4.1,4.1,0,0,0-1.095-2.834,3.823,3.823,0,0,0-2.923-1.2,3.872,3.872,0,0,0-2.9,1.2,3.922,3.922,0,0,0-1.12,2.834v7.146a.475.475,0,0,0,.535.535h.79a.471.471,0,0,0,.531-.535v-3.833a.482.482,0,0,1,.538-.549h3.228a.482.482,0,0,1,.539.549v3.833a.471.471,0,0,0,.531.535h.8a.471.471,0,0,0,.531-.535v-7.146Zm-1.864.6a.478.478,0,0,1-.538.542h-3.228a.478.478,0,0,1-.538-.542v-.6a2.37,2.37,0,0,1,.563-1.577,2.158,2.158,0,0,1,3.189,0,2.388,2.388,0,0,1,.563,1.577v.6Zm30.515,4.432a4.131,4.131,0,0,0-.329-1.814,2.689,2.689,0,0,0-.8-.96q-.3-.273,0-.521a2.833,2.833,0,0,0,.709-.709,2.544,2.544,0,0,0,.432-1.541,3.274,3.274,0,0,0-1.112-2.6,4.506,4.506,0,0,0-2.905-.921,3.872,3.872,0,0,0-2.9,1.2,3.922,3.922,0,0,0-1.12,2.834v7.146a.471.471,0,0,0,.531.535h.8a.471.471,0,0,0,.531-.535v-3.83a.478.478,0,0,1,.535-.549h1.616a2.023,2.023,0,0,1,1.591.709,2.384,2.384,0,0,1,.563,1.569v2.126a.471.471,0,0,0,.531.535h.8a.471.471,0,0,0,.531-.535v-2.126Zm-1.864-5.537a1.347,1.347,0,0,1-.829,1.332,2.941,2.941,0,0,1-1.325.315h-1.616a.478.478,0,0,1-.535-.542v-.6a2.37,2.37,0,0,1,.567-1.577,2.016,2.016,0,0,1,1.587-.709,2.6,2.6,0,0,1,1.52.425,1.612,1.612,0,0,1,.631,1.357Z" transform="translate(-43.837 -137.427)"/><path class="a" d="M92.335,46.49C64.768,48.864,44,58.8,44,70.642c0,13.6,27.429,24.7,61.061,24.7s61.065-11.093,61.065-24.7c0-11.837-20.786-21.778-48.353-24.152v1.137c14.271,1.711,24.506,8.149,24.506,13.424,0,6.731-16.719,12.209-37.2,12.209s-37.2-5.484-37.2-12.209c0-5.261,10.235-11.415,24.506-13.109Z" transform="translate(-43.807 -26.25)"/><path class="a" d="M164.668,54.74c-11.4.875-20.038,4.538-20.038,8.9,0,5.013,11.369,9.1,25.307,9.1s25.307-4.1,25.307-9.1c0-4.365-8.616-8.028-20.038-8.9v1.155c5.913.631,10.154,2.289,10.154,4.23,0,2.48-6.926,4.5-15.422,4.5s-15.422-2.023-15.422-4.5c0-1.941,4.251-3.6,10.154-4.23Z" transform="translate(-108.785 -31.577)"/><path class="a" d="M94.513,249.608a.183.183,0,0,0-.2-.2h-.283a.183.183,0,0,0-.2.2v.2a.181.181,0,0,0,.2.2h.293a.181.181,0,0,0,.2-.2Z" transform="translate(-57.459 -172.317)"/><path class="a" d="M175.2,249.568a.183.183,0,0,0-.193-.2h-.293a.183.183,0,0,0-.2.2v.2a.181.181,0,0,0,.2.2h.3a.181.181,0,0,0,.193-.2Z" transform="translate(-121.75 -172.285)"/><path class="a" d="M255.293,249.658a.185.185,0,0,0-.193-.2h-.293a.183.183,0,0,0-.2.2v.2a.181.181,0,0,0,.2.2h.293a.181.181,0,0,0,.193-.2Z" transform="translate(-185.562 -172.357)"/><path class="a" d="M335.473,249.588a.183.183,0,0,0-.193-.2h-.293a.183.183,0,0,0-.2.2v.2a.181.181,0,0,0,.2.2h.293a.181.181,0,0,0,.193-.2Z" transform="translate(-249.446 -172.301)"/></g></svg>